<?xml version="1.0" encoding="utf-8"?>
<!-- Generator: Adobe Illustrator 19.0.0, SVG Export Plug-In . SVG Version: 6.00 Build 0)  -->
<svg version="1.2" baseProfile="tiny" id="Слой_1"
	 xmlns="http://www.w3.org/2000/svg" xmlns:xlink="http://www.w3.org/1999/xlink" x="0px" y="0px" viewBox="0 0 112 64"
	 xml:space="preserve">
<g id="XMLID_114_">
	<polygon id="XMLID_130_" fill="none" stroke="#3A3A3C" stroke-width="3" stroke-miterlimit="10" points="2.5,2 110.5,2 110.5,62 
		13.5,62 	"/>
	<g id="XMLID_113_">
		<g id="XMLID_127_">
			<rect id="XMLID_129_" x="35.9" y="12.5" fill="#3A3A3C" width="6" height="40"/>
			<polygon id="XMLID_128_" fill="#3A3A3C" points="35.9,48.5 49.9,48.5 48.9,52.5 35.9,52.5 			"/>
		</g>
		<g id="XMLID_123_">
			<rect id="XMLID_126_" x="20.9" y="12.5" fill="#3A3A3C" width="6" height="40"/>
			<polygon id="XMLID_125_" fill="#3A3A3C" points="20.9,16.5 33.9,16.5 32.9,12.5 20.9,12.5 			"/>
			<polygon id="XMLID_124_" fill="#3A3A3C" points="20.9,27.5 30.9,27.5 29.9,31.5 20.9,31.5 			"/>
		</g>
		<g id="XMLID_120_">
			<polygon id="XMLID_122_" fill="#3A3A3C" points="70.9,12.5 76.6,12.5 80.2,35.5 80.8,35.5 83.7,12.5 87.6,12.5 87,29.4 83,52.5 
				78,52.5 			"/>
			<polygon id="XMLID_121_" fill="#3A3A3C" points="103,12.5 97.3,12.5 93.7,35.5 93.1,35.5 90.2,12.5 86.3,12.5 87,29.5 90.9,52.5 
				95.9,52.5 			"/>
		</g>
		<g id="XMLID_116_">
			<path id="XMLID_117_" fill="#3A3A3C" stroke="#3A3A3C" stroke-width="0.5" stroke-miterlimit="10" d="M59.6,12.7
				c-6.4,0-11.5,8.8-11.5,19.7s5.1,19.7,11.5,19.7c6.4,0,11.5-8.8,11.5-19.7S65.9,12.7,59.6,12.7z M59.6,49.6
				c-3.6,0-6.6-7.6-6.6-17.1c0-9.4,2.9-17.1,6.6-17.1s6.6,7.6,6.6,17.1C66.1,41.9,63.2,49.6,59.6,49.6z"/>
		</g>
	</g>
</g>
<g id="XMLID_1_">
</g>
<g id="XMLID_2_">
</g>
<g id="XMLID_3_">
</g>
<g id="XMLID_4_">
</g>
<g id="XMLID_5_">
</g>
<g id="XMLID_6_">
</g>
</svg>
