<svg width="24" height="24" viewBox="0 0 24 24" fill="none" xmlns="http://www.w3.org/2000/svg">
<path d="M5 2.03155L4.95875 1.0324C4.42297 1.05452 4 1.49531 4 2.03155H5ZM5 22H4C4 22.273 4.11161 22.5341 4.30892 22.7228C4.50624 22.9114 4.77211 23.0112 5.04483 22.999L5 22ZM18.5951 14.4444L19.571 14.6626L18.5951 14.4444ZM4 2.03155V22H6V2.03155H4ZM5.04483 22.999C7.1366 22.9051 10.3448 22.4024 13.2214 21.1798C16.0699 19.9692 18.8379 17.9412 19.571 14.6626L17.6191 14.2262C17.0973 16.5603 15.0722 18.2201 12.4391 19.3392C9.83405 20.4463 6.8722 20.915 4.95517 21.001L5.04483 22.999ZM19.571 14.6626C20.3217 11.3047 20.2499 7.68389 18.0143 4.97105C15.7741 2.25256 11.6192 0.757419 4.95875 1.0324L5.04125 3.0307C11.453 2.76599 14.8196 4.23916 16.4709 6.24296C18.1268 8.25241 18.3164 11.1079 17.6191 14.2262L19.571 14.6626Z" fill="#AEAEB2"/>
<path d="M5 22C6.625 19.623 10.9583 15.4632 18 16.0574" stroke="#AEAEB2" stroke-width="2"/>
<path d="M5 19C6.4359 16.6842 11.2462 11.2421 19 8" stroke="#AEAEB2" stroke-width="2"/>
<path d="M11.5 2.5C10.2273 3.98148 6.30909 8.55556 5 13" stroke="#AEAEB2" stroke-width="2"/>
</svg>
