<svg width="46" height="52" viewBox="0 0 46 52" fill="none" xmlns="http://www.w3.org/2000/svg">
<path fill-rule="evenodd" clip-rule="evenodd" d="M45.3376 19.0405C43.8709 13.8183 40.9854 9.91345 37.2953 6.99658C33.5107 4.03267 28.8745 2.15081 23.9545 0.880554C23.5287 1.25692 23.1029 1.68034 22.7245 2.05671C22.2514 2.52718 21.7783 2.99764 21.3525 3.46812C14.7768 10.2428 9.47832 18.1466 5.83565 26.9443C2.52409 34.8951 0.915627 42.94 0.584473 51.926C4.60563 45.5746 9.05256 40.5406 14.4456 35.789C20.4537 30.4727 27.2187 26.1915 34.4568 22.9453C36.3018 22.1455 38.1468 21.3928 40.0391 20.7341C41.7894 20.1225 43.5397 19.558 45.3376 19.0405Z" fill="url(#paint0_linear_203_6983)"/>
<defs>
<linearGradient id="paint0_linear_203_6983" x1="0.585419" y1="26.4204" x2="45.3197" y2="26.4204" gradientUnits="userSpaceOnUse">
<stop stop-color="#378A41"/>
<stop offset="1" stop-color="#4CAC48"/>
</linearGradient>
</defs>
</svg>
