<svg width="46" height="35" viewBox="0 0 46 35" fill="none" xmlns="http://www.w3.org/2000/svg">
<path fill-rule="evenodd" clip-rule="evenodd" d="M39.8431 24.0102C41.5939 21.94 43.0602 19.4465 44.0064 16.5768C44.9998 13.6128 45.5203 10.1785 45.4256 6.27359C45.4256 5.23856 45.331 4.20357 45.2363 3.21557C45.1416 2.41578 45.0474 1.66302 44.9052 0.910309C43.202 1.38075 41.5463 1.89827 39.9378 2.50989C38.1402 3.16854 36.3426 3.87422 34.5922 4.62698C27.6852 7.73203 21.2041 11.8721 15.4326 16.9532C10.2287 21.5167 4.17329 28.1973 0.294067 34.2661C3.84216 32.4314 8.95139 29.5146 12.5941 28.2443C16.8991 26.7389 21.2987 25.6568 25.7456 24.9509C28.111 24.5746 30.4764 24.2924 32.8891 24.1513C35.2072 24.0102 37.5252 23.9632 39.8431 24.0102Z" fill="url(#paint0_linear_203_6984)"/>
<defs>
<linearGradient id="paint0_linear_203_6984" x1="0.278031" y1="17.6066" x2="45.463" y2="17.6066" gradientUnits="userSpaceOnUse">
<stop stop-color="#70B544"/>
<stop offset="1" stop-color="#80BB41"/>
</linearGradient>
</defs>
</svg>
